<svg width="44" height="44" viewBox="0 0 44 44" fill="none" xmlns="http://www.w3.org/2000/svg">
<circle cx="22" cy="22" r="22" fill="#AE7A62"/>
<path d="M11.3636 22H9M35 22H32.6364M22 32.6364V35M22 9V11.3636M14.4789 29.5211L12.8078 31.1922M31.1922 12.8078L29.5211 14.4789M14.4789 14.4789L12.8078 12.8078M31.1922 31.1922L29.5211 29.5211M29.0909 22C29.0909 23.8806 28.3438 25.6842 27.014 27.014C25.6842 28.3438 23.8806 29.0909 22 29.0909C20.1194 29.0909 18.3158 28.3438 16.986 27.014C15.6562 25.6842 14.9091 23.8806 14.9091 22C14.9091 20.1194 15.6562 18.3158 16.986 16.986C18.3158 15.6562 20.1194 14.9091 22 14.9091C23.8806 14.9091 25.6842 15.6562 27.014 16.986C28.3438 18.3158 29.0909 20.1194 29.0909 22Z" stroke="white" stroke-width="1.5" stroke-miterlimit="10" stroke-linecap="round"/>
</svg>
