<svg id="圖層_2" data-name="圖層 2" xmlns="http://www.w3.org/2000/svg" viewBox="0 0 512 512"><path d="M341.33,170.67a21.32,21.32,0,0,0-30.16,0L256,225.83l-55.17-55.16a21.33,21.33,0,0,0-30.16,30.16L225.83,256l-55.16,55.17a21.33,21.33,0,0,0,30.16,30.16L256,286.17l55.17,55.16a21.33,21.33,0,0,0,30.16-30.16L286.17,256l55.16-55.17A21.32,21.32,0,0,0,341.33,170.67Z"/><path d="M256,0C114.62,0,0,114.62,0,256S114.62,512,256,512,512,397.38,512,256,397.32.15,256,0Zm0,469.33C138.18,469.33,42.67,373.82,42.67,256S138.18,42.67,256,42.67,469.33,138.18,469.33,256,373.77,469.2,256,469.33Z"/></svg>