<svg width="15" height="14" viewBox="0 0 15 14" fill="none" xmlns="http://www.w3.org/2000/svg">
<ellipse cx="7.36842" cy="7" rx="7.36842" ry="7" fill="#262626"/>
<path d="M4.75367 9.09845C4.63174 9.21428 4.56324 9.37138 4.56324 9.53519C4.56324 9.699 4.63174 9.8561 4.75367 9.97193C4.87559 10.0878 5.04096 10.1528 5.2134 10.1528C5.38583 10.1528 5.5512 10.0878 5.67312 9.97193L7.66528 8.07938L9.65744 9.97193C9.77937 10.0878 9.94474 10.1528 10.1172 10.1528C10.2896 10.1528 10.455 10.0878 10.5769 9.97193C10.6988 9.8561 10.7673 9.699 10.7673 9.53519C10.7673 9.37138 10.6988 9.21428 10.5769 9.09845L8.58474 7.2059L10.5769 5.31335C10.6988 5.19752 10.7673 5.04042 10.7673 4.87661C10.7673 4.7128 10.6988 4.55569 10.5769 4.43986C10.455 4.32403 10.2896 4.25896 10.1172 4.25896C9.94474 4.25896 9.77937 4.32403 9.65744 4.43986L7.66528 6.33241L5.67312 4.43986C5.5512 4.32403 5.38583 4.25896 5.2134 4.25896C5.04096 4.25896 4.87559 4.32403 4.75367 4.43986C4.63174 4.55569 4.56324 4.7128 4.56324 4.87661C4.56324 5.04042 4.63174 5.19752 4.75367 5.31335L6.74583 7.2059L4.75367 9.09845Z" fill="white"/>
</svg>
