<?xml version="1.0" encoding="utf-8"?>
<!-- Generator: Adobe Illustrator 25.2.1, SVG Export Plug-In . SVG Version: 6.00 Build 0)  -->
<svg version="1.1" xmlns="http://www.w3.org/2000/svg" xmlns:xlink="http://www.w3.org/1999/xlink" x="0px" y="0px"
	 viewBox="0 0 510.14 510.14" style="enable-background:new 0 0 510.14 510.14;" xml:space="preserve">
<style type="text/css">
	.st0{display:none;}
	.st1{display:inline;}
	.st2{fill:#FFFFFF;}
</style>
<g id="Black" class="st0">
	<g class="st1">
		<path d="M487.53,22.62c-30.2-30.15-79.11-30.15-109.31,0L31.25,369.59C11.18,389.54-0.07,416.7,0,445v43.8
			c0,11.78,9.55,21.33,21.33,21.33h43.8c28.3,0.08,55.46-11.17,75.41-31.23l346.99-346.99C517.67,101.71,517.67,52.82,487.53,22.62z
			 M110.38,448.73c-12.03,11.95-28.29,18.68-45.25,18.73H42.67V445c-0.04-16.98,6.71-33.28,18.75-45.25l263.32-263.32l49.07,49.07
			L110.38,448.73z M457.34,101.75l-53.46,53.48l-49.07-48.96l53.48-53.48c13.55-13.52,35.49-13.5,49.01,0.05
			c13.52,13.55,13.5,35.49-0.05,49.01l0,0L457.34,101.75z"/>
	</g>
</g>
<g id="White">
	<g>
		<path class="st2" d="M487.53,22.62c-30.2-30.15-79.11-30.15-109.31,0L31.25,369.59C11.18,389.54-0.07,416.7,0,445v43.8
			c0,11.78,9.55,21.33,21.33,21.33h43.8c28.3,0.08,55.46-11.17,75.41-31.23l346.99-346.99C517.67,101.71,517.67,52.82,487.53,22.62z
			 M110.38,448.73c-12.03,11.95-28.29,18.68-45.25,18.73H42.67V445c-0.04-16.98,6.71-33.28,18.75-45.25l263.32-263.32l49.07,49.07
			L110.38,448.73z M457.34,101.75l-53.46,53.48l-49.07-48.96l53.48-53.48c13.55-13.52,35.49-13.5,49.01,0.05
			c13.52,13.55,13.5,35.49-0.05,49.01l0,0L457.34,101.75z"/>
	</g>
</g>
</svg>
