<svg width="44" height="44" viewBox="0 0 44 44" fill="none" xmlns="http://www.w3.org/2000/svg">
<circle cx="22" cy="22" r="22" fill="#AE7A62"/>
<path fill-rule="evenodd" clip-rule="evenodd" d="M21.5008 12.1776L22.3111 11.3447C22.0961 11.124 21.8046 11 21.5008 11C21.1969 11 20.9054 11.124 20.6904 11.3447L21.5008 12.1776ZM21.5008 30.6427C22.782 30.6427 24.6687 30.1273 25.7756 29.1027C26.9188 28.0454 27.6127 26.5692 27.7082 24.9916C27.7005 23.9324 27.3244 22.6689 26.6746 21.3017C26.0279 19.9377 25.1518 18.561 24.2559 17.3195C23.3943 16.1301 22.4747 14.9861 21.5008 13.8921V30.6427ZM21.5008 12.1776L20.6904 11.3447L20.6874 11.3463L20.6828 11.3526L20.6644 11.3698L20.5987 11.4406L20.3541 11.6999C19.1217 13.0319 17.9688 14.4394 16.9018 15.9146C15.96 17.2237 14.9968 18.7276 14.2659 20.2677C13.5428 21.7905 13 23.4421 13 25.0215L13.0015 25.0875C13.1226 27.2997 14.0899 29.373 15.6924 30.8549C17.3391 32.3808 19.8388 33 21.5008 33C23.1596 33 25.6594 32.3808 27.3091 30.8565C28.1103 30.1147 28.7606 29.2172 29.2224 28.2157C29.6843 27.2142 29.9486 26.1285 30 25.0215C30 23.4421 29.4588 21.7905 28.7341 20.2661C28.0032 18.726 27.0416 17.2237 26.0982 15.9146C24.9612 14.3432 23.7269 12.8488 22.4028 11.4406L22.3371 11.3698L22.3187 11.3526L22.3141 11.3463L22.3111 11.3447L21.5008 12.1776Z" fill="white"/>
</svg>
